<?xml version="1.0" encoding="UTF-8"?>
<svg version="1.1" xmlns="http://www.w3.org/2000/svg" width="640" height="640">
<path d="M0 0 C211.2 0 422.4 0 640 0 C640 211.2 640 422.4 640 640 C428.8 640 217.6 640 0 640 C0 428.8 0 217.6 0 0 Z " fill="#F44236" transform="translate(0,0)"/>
<path d="M0 0 C5.72432897 6.36036552 6.34581262 10.71358563 6 19 C5.84045307 20.77811954 5.67202502 22.555458 5.49609375 24.33203125 C4.90418105 31.25490586 4.84833826 38.15340056 4.86962891 45.0949707 C4.87509083 47.22288822 4.86959481 49.35060365 4.86328125 51.47851562 C4.86394042 52.8333338 4.86521821 54.18815185 4.8671875 55.54296875 C4.86887939 57.3686438 4.86887939 57.3686438 4.87060547 59.23120117 C4.68434089 61.9087831 4.68434089 61.9087831 6 63 C8.69135912 63.19422179 11.36725877 63.33046681 14.0625 63.4375 C17.70871847 63.61756447 21.35430716 63.80961794 25 64 C25.94520508 64.04705078 26.89041016 64.09410156 27.86425781 64.14257812 C58.25667768 65.76323366 91.35122022 73.72961734 115 94 C115.845625 94.70125 116.69125 95.4025 117.5625 96.125 C123.14240893 100.90777908 127.28152854 105.6774255 131 112 C131.721875 113.093125 132.44375 114.18625 133.1875 115.3125 C139.42833465 126.59300448 138.92158377 139.07387841 136.10546875 151.2109375 C132.88540333 162.24791083 127.94550907 171.85601326 121 181 C120.22422746 182.10723285 119.45372909 183.21817282 118.6875 184.33203125 C113.29758125 192.13429591 107.50864721 199.08796929 101 206 C99.65852931 207.49272709 98.32428965 208.99200971 97 210.5 C96.46375 211.1084375 95.9275 211.716875 95.375 212.34375 C93.81516593 214.16384259 93.81516593 214.16384259 92 217 C91.34 217 90.68 217 90 217 C91.49659148 222.04862823 94.5450234 225.01421604 98.125 228.6875 C103.40715729 234.23761386 108.32462196 239.92406819 113 246 C113.62648438 246.78117188 114.25296875 247.56234375 114.8984375 248.3671875 C117.86944633 252.09035047 120.59423085 255.73137035 122.84375 259.94921875 C123.78193154 261.61322317 124.80151632 263.23114266 125.84375 264.83203125 C134.85659032 278.73803674 140.41925696 293.93601242 137.31640625 310.69140625 C133.71293139 325.50901448 126.2984728 335.04361099 115 345 C114.34 345 113.68 345 113 345 C113 345.66 113 346.32 113 347 C84.68093753 367.77367989 48.82978121 373.90911686 14.57177734 374.70947266 C13.46914551 374.7357373 12.36651367 374.76200195 11.23046875 374.7890625 C9.75163208 374.81540771 9.75163208 374.81540771 8.24291992 374.84228516 C6.02986162 374.75154967 6.02986162 374.75154967 5 376 C4.89950273 378.150452 4.86918255 380.30423318 4.8671875 382.45703125 C4.86623077 383.11523361 4.86527405 383.77343597 4.86428833 384.45158386 C4.86360567 385.85468643 4.86546589 387.25779212 4.86962891 388.66088867 C4.87488277 390.765539 4.86973645 392.86996658 4.86328125 394.97460938 C4.85928491 403.02806987 5.19564954 410.98246684 6 419 C6.64320569 426.04735106 6.13193347 430.24095587 1.76953125 436.0234375 C-3.59285108 442.01320672 -9.21240249 444.4031207 -17.12109375 445.21875 C-25.68679349 445.58519705 -33.9193495 443.66327499 -40.46484375 437.98828125 C-45.421107 431.5691006 -46.7459934 425.34896344 -47.25 417.375 C-47.36384033 415.81471069 -47.36384033 415.81471069 -47.47998047 414.22290039 C-48.51258118 397.84997422 -48.16832018 381.39568063 -48 365 C-48.75893555 364.82549316 -49.51787109 364.65098633 -50.29980469 364.47119141 C-56.86920392 362.90435784 -63.05375847 361.05634376 -69.25 358.375 C-70.05574463 358.03017578 -70.86148926 357.68535156 -71.69165039 357.33007812 C-88.58630702 349.93129779 -103.99689433 339.98160471 -118 328 C-118.80566406 327.31808594 -119.61132812 326.63617188 -120.44140625 325.93359375 C-125.42597993 321.62375085 -129.83897355 317.1051951 -134 312 C-134.62310059 311.23743896 -134.62310059 311.23743896 -135.25878906 310.45947266 C-150.44757704 291.77845091 -162.96970424 271.04743139 -167 247 C-167.17217041 246.12351807 -167.34434082 245.24703613 -167.52172852 244.34399414 C-168.11280894 240.21125881 -168.19967604 236.16972202 -168.23828125 232 C-168.24802979 231.13504913 -168.25777832 230.27009827 -168.26782227 229.37893677 C-168.6759571 183.80609098 -168.6759571 183.80609098 -159 165 C-158.36697163 163.70062598 -157.73417672 162.40113821 -157.1015625 161.1015625 C-150.55416475 147.96128842 -142.1316359 132.8318341 -131 123 C-130.34 123 -129.68 123 -129 123 C-128.72671875 122.40316406 -128.4534375 121.80632812 -128.171875 121.19140625 C-121.86157549 109.39114616 -104.97108033 99.81104244 -94 93 C-93.15526123 92.47092041 -93.15526123 92.47092041 -92.29345703 91.93115234 C-81.32209776 85.14477541 -69.733613 80.47618938 -57.65209961 76.02392578 C-54.39524301 74.7665147 -51.20283942 73.38920115 -48 72 C-47.99191315 71.33316193 -47.98382629 70.66632385 -47.97549438 69.97927856 C-47.88905515 63.00292752 -47.7895368 56.02684782 -47.68261719 49.05078125 C-47.64446918 46.45154397 -47.60959226 43.85225644 -47.578125 41.25292969 C-47.53216571 37.50437533 -47.47422256 33.75616266 -47.4140625 30.0078125 C-47.40251129 28.85636749 -47.39096008 27.70492249 -47.37905884 26.51858521 C-47.04465164 7.99907032 -47.04465164 7.99907032 -41 1 C-29.43617561 -9.90827879 -12.34832689 -9.76379336 0 0 Z " fill="#FDFCFC" transform="translate(335,101)"/>
<path d="M0 0 C2.28765979 3.29249913 3.70300599 6.6112124 4.98046875 10.39453125 C5.33560547 11.42465332 5.69074219 12.45477539 6.05664062 13.51611328 C6.61641602 15.14782471 6.61641602 15.14782471 7.1875 16.8125 C17.57068893 46.28093872 34.66667486 74.79533507 58.12548828 95.7512207 C61.95663233 99.32573591 61.95663233 99.32573591 62.1640625 102.55078125 C60.63206117 105.77415318 58.62933763 107.5849316 56 110 C47.97092505 118.19039694 40.64245787 126.640173 34 136 C33.40960938 136.80566406 32.81921875 137.61132812 32.2109375 138.44140625 C18.47569412 157.47632117 8.67894569 178.93201663 1.61987305 201.27636719 C1 203 1 203 0 204 C-5.6696716 204.68486859 -9.3174718 202.72074838 -14.125 200.0625 C-14.87491211 199.65427002 -15.62482422 199.24604004 -16.39746094 198.82543945 C-31.01805894 190.68463793 -44.56900769 179.14100502 -55 166 C-55.6084375 165.27554688 -56.216875 164.55109375 -56.84375 163.8046875 C-61.60981683 157.77145211 -65.03085952 151.33944279 -68.375 144.4375 C-68.80401611 143.56327393 -69.23303223 142.68904785 -69.67504883 141.78833008 C-79.34672984 121.19619982 -79.21685806 90.08807418 -72.08984375 68.70703125 C-59.67918268 37.88055052 -36.94516543 16.0038364 -7.62109375 0.99609375 C-4.75511939 -0.09306193 -3.02077012 -0.59812254 0 0 Z " fill="#F44236" transform="translate(294,218)"/>
<path d="M0 0 C3.81202037 0.52796724 4.68278428 1.4763454 7.07421875 4.42578125 C8.09708984 5.67101562 8.09708984 5.67101562 9.140625 6.94140625 C9.77871094 7.76125 10.41679687 8.58109375 11.07421875 9.42578125 C11.57824219 10.06 12.08226562 10.69421875 12.6015625 11.34765625 C14.14008999 13.34220158 15.60807769 15.37739279 17.07421875 17.42578125 C17.79867187 18.40546875 18.523125 19.38515625 19.26953125 20.39453125 C24.95137293 28.19792403 30.86288952 36.72615969 31.76171875 46.61328125 C30.31283849 54.64798088 25.15169641 60.13745704 18.6640625 64.80078125 C1.57638369 75.52246207 -21.90136398 79.91548703 -41.92578125 78.42578125 C-42.58578125 78.09578125 -43.24578125 77.76578125 -43.92578125 77.42578125 C-44.40735477 71.08792978 -42.75717293 66.34085614 -40.42578125 60.48828125 C-40.06339355 59.5638623 -39.70100586 58.63944336 -39.32763672 57.68701172 C-32.30005658 40.07700887 -23.26710972 24.29062966 -10.953125 9.8125 C-9.67481412 8.30759066 -8.43176702 6.77129835 -7.2421875 5.1953125 C-3.65897351 0.53248079 -3.65897351 0.53248079 0 0 Z " fill="#F44337" transform="translate(389.92578125,355.57421875)"/>
<path d="M0 0 C16.03834125 -0.45616636 30.83219009 0.2086544 46 6 C46.64839844 6.21269531 47.29679687 6.42539063 47.96484375 6.64453125 C53.79650934 8.61921405 58.84643587 11.66534085 64 15 C64.928125 15.598125 65.85625 16.19625 66.8125 16.8125 C71.16173193 21.16173193 73.78704023 25.65983534 74.34765625 31.8203125 C74.20818418 36.32973393 72.72803181 39.69206381 70.625 43.625 C70.26776855 44.31231201 69.91053711 44.99962402 69.54248047 45.70776367 C62.6067726 58.67458666 53.37925084 69.65782454 43 80 C24.21320956 60.67873473 10.41453056 39.06110597 1.5625 13.5 C1.15511597 12.35072021 1.15511597 12.35072021 0.73950195 11.17822266 C-0.61967329 7.09573477 -1.42219905 4.24135101 0 0 Z " fill="#F44337" transform="translate(347,207)"/>
<path d="M0 0 C1.53140855 3.0628171 0.50549058 5.65316488 0 9 C-0.1408084 11.55949827 -0.24437214 14.12123751 -0.31640625 16.68359375 C-0.33718735 17.38396255 -0.35796844 18.08433136 -0.37937927 18.80592346 C-0.44412465 21.01636106 -0.50340608 23.22690485 -0.5625 25.4375 C-0.60575681 26.94727607 -0.64937323 28.45704188 -0.69335938 29.96679688 C-0.79972748 33.64442196 -0.90120002 37.32216291 -1 41 C-1.33 41 -1.66 41 -2 41 C-2 34.4 -2 27.8 -2 21 C-2.66 21 -3.32 21 -4 21 C-6.21538462 14.72307692 -6.21538462 14.72307692 -5.125 11.0625 C-4.75375 10.381875 -4.3825 9.70125 -4 9 C-3.34 9 -2.68 9 -2 9 C-2.226875 8.071875 -2.45375 7.14375 -2.6875 6.1875 C-3 3 -3 3 -1.5625 1.125 C-1.046875 0.75375 -0.53125 0.3825 0 0 Z " fill="#F65E53" transform="translate(168,291)"/>
<path d="M0 0 C0.66 0.99 1.32 1.98 2 3 C1.01 3.33 0.02 3.66 -1 4 C-0.97679687 4.83144531 -0.95359375 5.66289062 -0.9296875 6.51953125 C-0.90261719 8.14955078 -0.90261719 8.14955078 -0.875 9.8125 C-0.85179687 10.89144531 -0.82859375 11.97039062 -0.8046875 13.08203125 C-1 16 -1 16 -3 19 C-4.32 19 -5.64 19 -7 19 C-6.44093872 12.10491094 -3.04735545 6.0947109 0 0 Z " fill="#F4473C" transform="translate(358,397)"/>
<path d="M0 0 C2 3 2 3 1.7578125 5.04296875 C1.171875 7.02864583 0.5859375 9.01432292 0 11 C-0.721875 10.855625 -1.44375 10.71125 -2.1875 10.5625 C-5.02749218 10.7066078 -5.02749218 10.7066078 -6.4453125 12.55859375 C-7.69868893 14.33838828 -8.88087302 16.13320095 -10 18 C-10.99 17.34 -11.98 16.68 -13 16 C-12.31292969 15.26394531 -11.62585938 14.52789062 -10.91796875 13.76953125 C-10.00758499 12.78406429 -9.09744146 11.79837538 -8.1875 10.8125 C-7.29417969 9.84957031 -6.40085937 8.88664062 -5.48046875 7.89453125 C-3.30297922 5.35355528 -1.60807526 2.92231617 0 0 Z " fill="#FBF7F6" transform="translate(407,266)"/>
<path d="M0 0 C1.76462683 3.08809695 2 4.23312136 2 8 C0.68 8 -0.64 8 -2 8 C-1.34 8.66 -0.68 9.32 0 10 C0 10.99 0 11.98 0 13 C-0.66 13.66 -1.32 14.32 -2 15 C-2 14.01 -2 13.02 -2 12 C-2.66 12 -3.32 12 -4 12 C-4.66 13.32 -5.32 14.64 -6 16 C-6.33 15.34 -6.66 14.68 -7 14 C-5.92481882 11.55667274 -4.80191434 9.23245477 -3.5625 6.875 C-3.22412109 6.21628906 -2.88574219 5.55757813 -2.53710938 4.87890625 C-1.69850074 3.24893453 -0.85015189 1.62398091 0 0 Z " fill="#F54A41" transform="translate(229,272)"/>
<path d="M0 0 C1.98 0.66 3.96 1.32 6 2 C3.53560435 3.64293043 1.22208889 4.97626772 -1.4375 6.25 C-2.58025391 6.81460938 -2.58025391 6.81460938 -3.74609375 7.390625 C-6 8 -6 8 -8.28515625 7.109375 C-8.85105469 6.74328125 -9.41695313 6.3771875 -10 6 C-10 5.34 -10 4.68 -10 4 C-7.24075815 2.19588033 -6.11027897 1.9872755 -2.75 2.375 C-1.8425 2.58125 -0.935 2.7875 0 3 C0 2.01 0 1.02 0 0 Z " fill="#F54C44" transform="translate(266,177)"/>
<path d="M0 0 C0.99 0.66 1.98 1.32 3 2 C2.4739075 5.78786597 1.61896089 8.17152224 -1 11 C-1.66 11 -2.32 11 -3 11 C-4 8 -4 8 -4 5 C-2.68 4.34 -1.36 3.68 0 3 C0 2.01 0 1.02 0 0 Z " fill="#F34940" transform="translate(353,316)"/>
<path d="M0 0 C1.65 0 3.3 0 5 0 C5.66 1.98 6.32 3.96 7 6 C6.34 6.66 5.68 7.32 5 8 C4.34 7.34 3.68 6.68 3 6 C2.67 6.66 2.34 7.32 2 8 C-0.1519437 4.77208445 -0.20086443 3.71599191 0 0 Z " fill="#F54C42" transform="translate(169,367)"/>
<path d="M0 0 C2 3 2 3 2 5 C1.34 5 0.68 5 0 5 C-0.144375 5.61875 -0.28875 6.2375 -0.4375 6.875 C-1 9 -1 9 -2 11 C-2.99 11 -3.98 11 -5 11 C-4.46884894 6.48521602 -2.63379708 3.65333143 0 0 Z " fill="#F45349" transform="translate(364,386)"/>
<path d="M0 0 C4.62 0.99 9.24 1.98 14 3 C10.4513865 5.36574234 9.4235475 5.10865265 5.3125 4.625 C3.82169922 4.45871094 3.82169922 4.45871094 2.30078125 4.2890625 C1.54152344 4.19367188 0.78226562 4.09828125 0 4 C0 2.68 0 1.36 0 0 Z " fill="#F34F44" transform="translate(378,209)"/>
<path d="M0 0 C2 1 2 1 2.875 2.875 C4.19480413 5.36796335 5.67721672 6.45147781 8 8 C7.01 9.485 7.01 9.485 6 11 C3.36 8.69 0.72 6.38 -2 4 C-1.34 3.67 -0.68 3.34 0 3 C0 2.01 0 1.02 0 0 Z M8 6 C10 7 10 7 10 7 Z " fill="#FBF4F0" transform="translate(212,419)"/>
<path d="M0 0 C5.57142857 5.14285714 5.57142857 5.14285714 6 9 C4.02 9.33 2.04 9.66 0 10 C0 6.7 0 3.4 0 0 Z " fill="#FAF1ED" transform="translate(449,350)"/>
<path d="M0 0 C1.79068573 2.6860286 2.66055791 4.6626589 3.625 7.6875 C3.88539063 8.49574219 4.14578125 9.30398437 4.4140625 10.13671875 C4.60742188 10.75160156 4.80078125 11.36648437 5 12 C3.68 12.33 2.36 12.66 1 13 C1 11.68 1 10.36 1 9 C0.34 8.67 -0.32 8.34 -1 8 C-0.67 5.36 -0.34 2.72 0 0 Z " fill="#F34F45" transform="translate(299,232)"/>
<path d="M0 0 C0.33 0 0.66 0 1 0 C1.19477739 1.62414378 1.38059458 3.24936423 1.5625 4.875 C1.66691406 5.77992188 1.77132813 6.68484375 1.87890625 7.6171875 C2 10 2 10 1 12 C-0.32 12 -1.64 12 -3 12 C-2.40075776 7.80530429 -1.42500059 3.99000166 0 0 Z " fill="#F55247" transform="translate(349,417)"/>
<path d="M0 0 C0.33 0.66 0.66 1.32 1 2 C1.66 2.33 2.32 2.66 3 3 C2.34 3 1.68 3 1 3 C1 3.66 1 4.32 1 5 C0.01 5.495 0.01 5.495 -1 6 C-1.103125 6.639375 -1.20625 7.27875 -1.3125 7.9375 C-1.539375 8.618125 -1.76625 9.29875 -2 10 C-4.54296875 11.12890625 -4.54296875 11.12890625 -7 12 C-6.02296079 10.1863523 -5.04330895 8.37411183 -4.0625 6.5625 C-3.51722656 5.55316406 -2.97195313 4.54382813 -2.41015625 3.50390625 C-1 1 -1 1 0 0 Z " fill="#FBEDE9" transform="translate(324,358)"/>
<path d="M0 0 C0.66 0.99 1.32 1.98 2 3 C1.34 4.32 0.68 5.64 0 7 C0.66 7 1.32 7 2 7 C1.67 8.32 1.34 9.64 1 11 C-1.74277578 7.80009492 -3.6302836 4.99500618 -5 1 C-4.34 1 -3.68 1 -3 1 C-3 1.66 -3 2.32 -3 3 C-2.01 2.01 -1.02 1.02 0 0 Z " fill="#F44C42" transform="translate(365,245)"/>
<path d="M0 0 C0.66 1.32 1.32 2.64 2 4 C0.68 4 -0.64 4 -2 4 C-2.33 3.34 -2.66 2.68 -3 2 C-6.11785113 2.64644661 -6.11785113 2.64644661 -7 5 C-8.32 4.34 -9.64 3.68 -11 3 C-7.14243493 0.84694043 -4.44870215 -0.39253254 0 0 Z " fill="#F34B44" transform="translate(294,218)"/>
<path d="M0 0 C0.33 0.66 0.66 1.32 1 2 C-0.59617578 5.83082186 -1.49984971 7.66656647 -5 10 C-5.66 9.01 -6.32 8.02 -7 7 C-4.69 4.69 -2.38 2.38 0 0 Z " fill="#FBEEEA" transform="translate(215,213)"/>
<path d="M0 0 C1.65 0.33 3.3 0.66 5 1 C1.17058011 4.32993034 -3.37522222 6.05324525 -8 8 C-8 7.01 -8 6.02 -8 5 C-6.865625 4.731875 -5.73125 4.46375 -4.5625 4.1875 C-3.386875 3.795625 -2.21125 3.40375 -1 3 C-0.67 2.01 -0.34 1.02 0 0 Z " fill="#F54D45" transform="translate(251,185)"/>
<path d="M0 0 C1.32 0 2.64 0 4 0 C4 0.99 4 1.98 4 3 C4.99 3.33 5.98 3.66 7 4 C7 4.66 7 5.32 7 6 C7.66 6 8.32 6 9 6 C9 6.66 9 7.32 9 8 C8.01 8.33 7.02 8.66 6 9 C4.76302083 7.50260417 3.52604167 6.00520833 2.2890625 4.5078125 C1.24749008 3.28948839 0.13339903 2.13339903 -1 1 C-0.67 0.67 -0.34 0.34 0 0 Z " fill="#F44B41" transform="translate(332,97)"/>
<path d="M0 0 C2.64465038 3.1254959 3.84414715 6.08788267 5 10 C3.35 10 1.7 10 0 10 C-0.74926071 6.33694766 -1.2380014 3.57644848 0 0 Z " fill="#F25143" transform="translate(308,254)"/>
<path d="M0 0 C0.66 0.33 1.32 0.66 2 1 C1.67 1.33 1.34 1.66 1 2 C1.99 2.66 2.98 3.32 4 4 C1.24075815 5.80411967 0.11027897 6.0127245 -3.25 5.625 C-4.1575 5.41875 -5.065 5.2125 -6 5 C-5.195625 4.360625 -4.39125 3.72125 -3.5625 3.0625 C-1.7249496 1.59396498 -1.7249496 1.59396498 0 0 Z " fill="#F74C44" transform="translate(275,225)"/>
<path d="M0 0 C0.33 0 0.66 0 1 0 C2.51708428 13.6332574 2.51708428 13.6332574 0 20 C-0.33 20 -0.66 20 -1 20 C-0.67 13.4 -0.34 6.8 0 0 Z " fill="#F56D64" transform="translate(340,120)"/>
<path d="M0 0 C3.25543229 0.34879632 4.01873107 1.02133261 6.25 3.5625 C6.8275 4.366875 7.405 5.17125 8 6 C7.01 6.33 6.02 6.66 5 7 C3.29115995 5.37660195 1.62553283 3.70680947 0 2 C0 1.34 0 0.68 0 0 Z " fill="#F44D44" transform="translate(329,292)"/>
<path d="M0 0 C1.36682561 2.73365122 0.84683011 4.10666379 0 7 C-1.5625 8.8125 -1.5625 8.8125 -3 10 C-3.99 9.67 -4.98 9.34 -6 9 C-4.02 6.03 -2.04 3.06 0 0 Z " fill="#F5544A" transform="translate(461,273)"/>
<path d="M0 0 C0.99 0 1.98 0 3 0 C4.75 2.1875 4.75 2.1875 6 5 C5.6875 7.8125 5.6875 7.8125 5 10 C2.35534962 6.8745041 1.15585285 3.91211733 0 0 Z " fill="#F44C43" transform="translate(355,235)"/>
<path d="M0 0 C1.60031344 3.20062687 0.03173691 5.72271806 -1 9 C-2.32 9.33 -3.64 9.66 -5 10 C-3.84414715 6.08788267 -2.64465038 3.1254959 0 0 Z " fill="#F5514A" transform="translate(235,262)"/>
<path d="M0 0 C0.33 0.66 0.66 1.32 1 2 C-0.98 4.97 -2.96 7.94 -5 11 C-5.99 10.34 -6.98 9.68 -8 9 C-5.36 6.03 -2.72 3.06 0 0 Z " fill="#FBEEE8" transform="translate(402,273)"/>
<path d="M0 0 C1.32 0 2.64 0 4 0 C3.44271087 3.34373475 2.64826111 6.03312999 1 9 C-0.61949011 6.42786866 -1.04408751 5.32330841 -0.625 2.25 C-0.41875 1.5075 -0.2125 0.765 0 0 Z " fill="#FAF2EF" transform="translate(347,412)"/>
<path d="M0 0 C3.07777878 1.02592626 3.84450474 1.75469244 6 4 C6.99 4.66 7.98 5.32 9 6 C8.67 6.99 8.34 7.98 8 9 C1.42857143 3.85714286 1.42857143 3.85714286 0 0 Z " fill="#F44E44" transform="translate(374,268)"/>
<path d="M0 0 C-1.09068668 3.77545388 -1.9083091 6.47043472 -5 9 C-5.75 6.75 -5.75 6.75 -6 4 C-2.86486486 0 -2.86486486 0 0 0 Z " fill="#F44D44" transform="translate(185,249)"/>
<path d="M0 0 C0.66 0 1.32 0 2 0 C2.66 1.98 3.32 3.96 4 6 C3.34 6 2.68 6 2 6 C1.67 6.99 1.34 7.98 1 9 C0.29925156 5.846632 0 3.27275026 0 0 Z " fill="#F44F43" transform="translate(177,378)"/>
<path d="M0 0 C3.25543229 0.34879632 4.01873107 1.02133261 6.25 3.5625 C6.8275 4.366875 7.405 5.17125 8 6 C5 6 5 6 2 4 C2 3.34 2 2.68 2 2 C1.34 2 0.68 2 0 2 C0 1.34 0 0.68 0 0 Z " fill="#F64D40" transform="translate(341,306)"/>
<path d="M0 0 C1.32 0.66 2.64 1.32 4 2 C1.03 3.65 -1.94 5.3 -5 7 C-5.33 6.34 -5.66 5.68 -6 5 C-5.38125 4.731875 -4.7625 4.46375 -4.125 4.1875 C-1.7004767 3.04443152 -1.7004767 3.04443152 0 0 Z " fill="#FBF0ED" transform="translate(270,225)"/>
<path d="M0 0 C1.98 0.495 1.98 0.495 4 1 C3.01 2.485 3.01 2.485 2 4 C1.61500109 5.65549531 1.27206865 7.3222433 1 9 C-0.61949011 6.42786866 -1.04408751 5.32330841 -0.625 2.25 C-0.41875 1.5075 -0.2125 0.765 0 0 Z " fill="#F6574F" transform="translate(347,207)"/>
<path d="M0 0 C0.99 1.32 1.98 2.64 3 4 C-0.06890187 5.53445094 -2.70094266 4.54984289 -6 4 C-4.03617993 2.49440461 -2.21736634 1.10868317 0 0 Z " fill="#F34C3F" transform="translate(429,458)"/>
<path d="M0 0 C0.598125 0.20625 1.19625 0.4125 1.8125 0.625 C1.4825 1.615 1.1525 2.605 0.8125 3.625 C-0.8375 3.955 -2.4875 4.285 -4.1875 4.625 C-4.5175 3.635 -4.8475 2.645 -5.1875 1.625 C-2.1875 -0.375 -2.1875 -0.375 0 0 Z " fill="#F74840" transform="translate(388.1875,425.375)"/>
<path d="M0 0 C0.66 0.99 1.32 1.98 2 3 C1.01 3.33 0.02 3.66 -1 4 C-1 5.98 -1 7.96 -1 10 C-1.99 10 -2.98 10 -4 10 C-2.99806563 6.20696275 -2.18975773 3.28463659 0 0 Z " fill="#F5544B" transform="translate(358,397)"/>
<path d="M0 0 C2.04119788 1.61594832 4.04072937 3.2856382 6 5 C6 5.66 6 6.32 6 7 C5.01 7 4.02 7 3 7 C3 6.34 3 5.68 3 5 C2.01 4.67 1.02 4.34 0 4 C0 2.68 0 1.36 0 0 Z " fill="#FCEEEA" transform="translate(434,332)"/>
<path d="M0 0 C0.66 0.66 1.32 1.32 2 2 C-0.8125 4.0625 -0.8125 4.0625 -4 6 C-4.99 5.67 -5.98 5.34 -7 5 C-2.25 1.125 -2.25 1.125 0 0 Z " fill="#F34E44" transform="translate(268,230)"/>
<path d="M0 0 C-3.465 2.97 -3.465 2.97 -7 6 C-6.625 3.0625 -6.625 3.0625 -6 0 C-4 -1 -4 -1 0 0 Z " fill="#F54840" transform="translate(214,215)"/>
<path d="M0 0 C0.66 0.33 1.32 0.66 2 1 C1.01 2.485 1.01 2.485 0 4 C0.33 4.66 0.66 5.32 1 6 C-0.98 6 -2.96 6 -5 6 C-3.86695008 2.60085025 -2.87481525 1.94745549 0 0 Z " fill="#FAF0EE" transform="translate(230,201)"/>
<path d="M0 0 C1 4 1 4 0 7 C-1.65 7 -3.3 7 -5 7 C-3.35 4.69 -1.7 2.38 0 0 Z " fill="#F45048" transform="translate(447,293)"/>
<path d="M0 0 C0.33 0.66 0.66 1.32 1 2 C1.66 2.33 2.32 2.66 3 3 C1.6875 4.5 1.6875 4.5 0 6 C-0.99 6 -1.98 6 -3 6 C-1.125 1.125 -1.125 1.125 0 0 Z " fill="#F55146" transform="translate(337,535)"/>
<path d="M0 0 C0.33 0 0.66 0 1 0 C1.33 3.3 1.66 6.6 2 10 C1.01 9.01 0.02 8.02 -1 7 C-0.6875 3.3125 -0.6875 3.3125 0 0 Z " fill="#F9F3F0" transform="translate(293,528)"/>
<path d="M0 0 C0.99 0.66 1.98 1.32 3 2 C3.1875 4.625 3.1875 4.625 3 7 C1.35 5.35 -0.3 3.7 -2 2 C-1.34 2 -0.68 2 0 2 C0 1.34 0 0.68 0 0 Z " fill="#F5493F" transform="translate(252,393)"/>
<path d="M0 0 C2.22189824 2.22189824 2.92598892 4.08482708 4 7 C3.01 7 2.02 7 1 7 C-0.6875 5 -0.6875 5 -2 3 C-1.34 3 -0.68 3 0 3 C0 2.01 0 1.02 0 0 Z " fill="#FBE8E6" transform="translate(341,298)"/>
<path d="M0 0 C1.32 0.33 2.64 0.66 4 1 C4.33 2.32 4.66 3.64 5 5 C4.01 5.33 3.02 5.66 2 6 C1.34 4.02 0.68 2.04 0 0 Z " fill="#F44A3F" transform="translate(322,282)"/>
<path d="M0 0 C0.99 0 1.98 0 3 0 C3.33 1.32 3.66 2.64 4 4 C2.02 4.99 2.02 4.99 0 6 C0 4.02 0 2.04 0 0 Z " fill="#F3493F" transform="translate(221,202)"/>
</svg>
