<?xml version="1.0" standalone="no"?><!DOCTYPE svg PUBLIC "-//W3C//DTD SVG 1.1//EN" "http://www.w3.org/Graphics/SVG/1.1/DTD/svg11.dtd"><svg t="1722232087343" class="icon" viewBox="0 0 1024 1024" version="1.1" xmlns="http://www.w3.org/2000/svg" p-id="14191" xmlns:xlink="http://www.w3.org/1999/xlink" width="200" height="200"><path d="M956.8 128H67.2A67.2 67.2 0 0 0 0 195.2v633.6A67.2 67.2 0 0 0 67.2 896h889.6a67.2 67.2 0 0 0 67.2-67.2V195.2A67.2 67.2 0 0 0 956.8 128z m3.2 704H64V192h896v640z" fill="#f44236" p-id="14192" data-spm-anchor-id="a313x.search_index.0.i20.109b3a8118Vr8v" class="selected"></path><path d="M96 224v576h832V224H96z m198.624 470.624l-45.248-45.248L386.752 512l-137.376-137.376 45.248-45.248L477.248 512zM768 704h-256v-64h256v64z" fill="#f44236" p-id="14193" data-spm-anchor-id="a313x.search_index.0.i17.109b3a8118Vr8v" class="selected"></path><path d="M0 992h32v32H0zM992 0h32v32h-32zM0 0h32v32H0zM992 992h32v32h-32z" fill="#FCFCFC" p-id="14194"></path></svg>